<?xml version="1.0" encoding="UTF-8"?>
<svg width="440px" height="265px" viewBox="0 0 440 265" version="1.1" xmlns="http://www.w3.org/2000/svg" xmlns:xlink="http://www.w3.org/1999/xlink">
    <title>undraw_connected_world_wuay</title>
    <g id="Devpost-Public" stroke="none" stroke-width="1" fill="none" fill-rule="evenodd">
        <g id="Sales-Public" transform="translate(-135.000000, -1043.000000)">
            <g id="undraw_connected_world_wuay" transform="translate(135.000000, 1043.688525)">
                <path d="M370.049228,64.1746609 C329.757421,8.04152273 244.642892,-14.7285113 160.935488,9.7953565 C116.681897,22.7603919 74.0132744,48.7377635 52.8677401,99.0383308 C15.0678265,188.956032 94.4335184,217.673555 146.330048,226.826177 C171.424401,231.251889 195.059022,238.686113 216.65655,248.807819 C255.512458,267.017679 324.290078,283.153544 376.152957,207.301024 C413.743236,152.32302 396.887552,101.564876 370.049228,64.1746609 Z" id="Path" fill="#FFFFFF" fill-rule="nonzero"></path>
                <path d="M102.648837,52.2233932 C102.490143,50.9763441 102.169197,49.7550582 101.694048,48.5901715 C101.571536,48.1447657 101.266284,47.7710715 100.852891,47.560415 C100.579595,47.4897853 100.293077,47.4865964 100.018258,47.5511256 L95.7331259,48.2028596 C95.3744666,48.2191412 95.0310507,48.3517725 94.7554232,48.5804599 C94.1973052,49.1638706 94.7468846,50.1033091 94.7297989,50.9081868 C94.710585,51.8132631 93.9015385,52.5479174 93.0242046,52.7909739 C92.1286535,52.9708318 91.2048706,52.9594471 90.3140811,52.7575743 L84.3221988,51.8320403 C86.0868849,51.2720482 87.6576216,50.2301804 88.8551162,48.8253616 C89.6436318,47.8968887 90.0631315,46.1634537 88.9235524,45.7237708 C88.5849598,45.6314131 88.2319017,45.6032359 87.8828212,45.6407111 C85.1680801,45.6616924 83.0318052,43.4087281 80.490355,42.4598524 C77.1536599,41.2945904 73.4414814,42.3945412 71.2913437,45.1855994 L74.4832901,45.3385658 C74.783586,45.3220928 75.0813651,45.4010314 75.3335257,45.5639555 C76.033053,46.1352309 75.1633613,47.2325254 75.2619077,48.1270794 C75.3899441,49.2892982 76.942464,49.5374469 78.1127778,49.6549702 C79.2830916,49.7724934 80.76777,50.7176196 80.2048262,51.7441966 C74.3226966,53.7580483 68.336991,47.8075545 62.1595111,48.5400427 C60.596027,48.7254332 59.1196705,49.3359435 57.5931998,49.7198311 C48.2684035,52.0648996 38.6282189,45.8079874 29.1024216,47.1330911 C26.9847243,47.4919322 24.9033915,48.0375473 22.8830942,48.763469 C21.5866174,49.1865915 20.2343084,49.6438482 19.2922978,50.6251438 C18.3502872,51.6064394 17.9917641,53.2846365 18.8841744,54.3107195 C16.4244611,54.5120497 13.9483183,54.2780969 11.5708197,53.6197337 C12.8804031,54.3433054 13.688196,55.7196946 13.6772945,57.2089322 C9.83674653,57.8314241 6.09789084,58.9645779 2.56129711,60.5779134 C3.22135963,61.6689305 3.99231299,62.6897447 4.86204399,63.6243169 L0,66.7290787 C1.64262962,67.1404502 2.49190937,69.3668089 1.53666187,70.7572888 C3.2398815,70.0041444 4.29545533,68.0558166 6.11676666,67.6608071 C7.309969,67.402022 8.52408026,67.8871976 9.65601289,68.342968 C10.7879455,68.7987384 12.0320523,69.2406846 13.2038444,68.8986203 C14.3756366,68.556556 15.2399374,67.0463066 14.4953468,66.0840922 C19.5038858,64.631579 24.6801048,63.8277516 29.8956993,63.6925347 C30.2980777,63.6423426 30.7061426,63.7193168 31.0620454,63.912545 C31.7409909,64.3807421 31.5623559,65.3920086 31.5257844,66.21256 C31.4892129,67.0331115 32.1326234,68.1115275 32.8704427,67.7416711 C32.002395,68.4898499 32.7444623,69.8983469 33.5772639,70.6851103 C34.4100654,71.4718738 35.41383,72.5574848 34.9039698,73.5809077 C34.7708995,73.8480152 34.5452003,74.0617299 34.4171639,74.3312569 C34.0392357,75.1268326 34.6392905,76.0543342 35.3470633,76.5826631 C36.0548361,77.110992 36.9217835,77.4802361 37.4134364,78.2118376 C37.9050894,78.9434391 37.6818201,80.2240341 36.8026638,80.3261961 L34.3038046,77.1725848 C33.4500531,78.0525327 32.8647523,79.1550155 32.6157802,80.3521768 C35.2656111,82.5052972 35.6641849,86.8877701 33.4457653,89.4783145 C32.3120952,90.8021473 30.6999327,91.6065648 29.2928662,92.6391547 C27.8857998,93.6717445 26.5838132,95.1421467 26.5873519,96.880598 C26.5934648,99.8840635 26.3465678,102.674405 27.4788658,105.459034 C29.5668336,110.59359 31.9774665,115.592604 34.6965033,120.426503 C35.4105335,121.695837 36.3333471,123.087089 37.779827,123.305647 C35.9517612,118.882157 34.3061396,114.389848 32.842962,109.828717 C33.7959665,109.832425 34.8972707,109.907635 35.4559409,110.675064 C35.9185542,111.310541 35.8191794,112.174542 35.9629251,112.94583 C36.1457552,113.693079 36.4506278,114.405471 36.8654075,115.054649 L45.5949492,130.510823 C46.318614,131.792115 47.148701,133.167453 48.531766,133.68634 C49.4160327,134.018089 50.4390877,133.955593 51.2529854,134.433214 C51.8909414,134.807589 52.3206194,135.472138 52.9709798,135.824788 C54.8098993,136.821909 57.3671055,134.909582 59.0856309,136.100091 C59.5770077,136.440496 59.8896094,136.981277 60.3423756,137.371008 C61.9295766,138.73723 64.5332523,137.823261 66.3655067,138.842428 C67.5463641,139.499267 68.1583518,140.812902 68.7881982,142.003348 C70.3658963,144.985279 72.9186973,147.906673 76.2998521,148.144118 C77.3619382,148.218703 78.4468194,148.018542 79.4850017,148.253348 C80.523184,148.488154 81.5451642,149.388738 81.378513,150.434012 C81.09281,152.226016 81.9835678,154.188236 81.7443385,155.986946 C81.3085772,159.26335 76.6330314,160.703156 76.2314202,163.983867 C76.1434855,164.702181 76.2811225,165.443616 76.1090507,166.146725 C75.8981518,167.008462 75.2470523,167.710076 75.0156904,168.566606 C74.5772444,170.189802 75.7472353,171.80522 77.0325355,172.897253 C78.3178357,173.989286 79.8509674,174.93095 80.5536553,176.459626 C81.2963811,178.075407 80.9315581,179.959398 81.1731067,181.719523 C81.7004349,185.56211 85.0395042,188.41073 88.4758625,190.247476 C89.522851,190.807093 90.6470182,191.348874 91.3246723,192.31969 C92.2091557,193.586807 92.1210425,195.257243 92.4163886,196.771293 C93.1397092,200.479251 96.2801098,203.534455 96.3692765,207.310433 C96.4326532,209.994272 94.9317345,212.429038 94.0351484,214.96138 C92.3342038,219.871005 92.8693773,225.273578 95.5010037,229.759183 C96.1717122,230.884886 96.973898,231.946222 97.448359,233.166588 C98.295039,235.34433 98.020313,237.819914 98.8009739,240.021892 C99.8330772,242.933097 102.669092,245.337668 102.397658,248.412527 C103.685201,251.070157 106.528336,252.375986 109.387251,253.166997 L114.511078,254.584682 C115.492162,254.856134 116.517354,255.12974 117.516356,254.93319 C118.515359,254.736639 119.468762,253.912106 119.442972,252.900185 C116.93032,252.336941 114.337082,251.737992 112.265815,250.216092 C110.194548,248.694193 108.775693,245.984061 109.561566,243.5459 C109.925969,242.415337 110.701226,241.109796 109.964171,240.175635 C109.542157,239.64077 108.770468,239.501029 108.294469,239.013011 C107.552015,238.251853 107.807094,236.973149 108.340849,236.055275 C108.874605,235.1374 109.646094,234.317144 109.861385,233.278791 C110.083971,232.089151 109.539225,230.887317 108.495279,230.264845 C109.445347,229.908329 110.309396,229.357264 111.031368,228.647401 C111.698313,227.890355 112.006386,226.723234 111.481743,225.862637 C113.03973,226.059035 114.879091,226.155223 115.901823,224.970604 C116.718516,224.024637 116.66242,222.610385 116.339721,221.405832 C116.017022,220.201279 115.471584,219.031312 115.454592,217.784902 C119.048588,217.95422 122.650485,217.832821 126.224687,217.421907 C125.707843,215.691729 124.533342,214.229673 122.950227,213.345755 C124.568986,213.073513 126.043707,211.147227 126.555126,209.596556 C127.066546,208.045885 126.936118,206.356811 126.620015,204.755471 C126.498613,204.34319 126.481974,203.907417 126.571588,203.487176 C126.753876,202.909753 127.324547,202.557394 127.852521,202.256021 L135.887459,197.669305 C136.366931,197.430519 136.801547,197.111601 137.17233,196.726476 C138.014154,195.743618 137.889453,194.25994 137.458411,193.042323 C137.027369,191.824706 136.336924,190.679727 136.170893,189.399525 C135.674296,185.570796 139.797722,182.8237 141.189308,179.219592 C141.735421,177.805209 141.84672,176.267801 141.952403,174.75647 C142.065911,173.133245 142.074348,171.247798 140.820441,170.201756 C139.618462,169.199044 137.740384,169.422715 136.482645,168.490028 C135.329519,167.634912 134.93168,165.974158 133.671953,165.283467 C132.527931,164.656224 131.093549,165.055147 129.82118,164.760142 C127.580909,164.240727 126.171098,161.674318 123.883146,161.436687 C122.592243,161.302612 121.131226,161.929898 120.073197,161.182627 C119.140914,160.524171 119.103553,159.20071 118.92609,158.077701 C118.289126,154.503066 115.479322,151.70121 111.88507,151.056598 C110.554073,150.844437 109.1053,150.92501 107.972997,150.197977 C106.826447,149.461786 106.300742,148.083479 105.40012,147.063966 C103.948598,145.420833 101.662502,144.83705 99.5209641,144.336636 L90.8101096,142.301182 C89.2637664,141.939847 87.2705405,141.748249 86.4407296,143.094613 C86.1950878,143.607248 86.0211872,144.150888 85.9238687,144.710398 C85.2859829,146.786873 83.3736909,148.217551 81.1896827,148.252272 C80.4596709,147.014536 79.2769099,146.104886 77.8882893,145.713203 C77.0049954,145.468525 76.0595354,145.441311 75.217112,145.081336 C74.2898673,144.631476 73.5899159,143.821934 73.2818893,142.843118 C72.9738628,141.864303 73.0849472,140.802602 73.589015,139.907733 C74.6214588,138.080622 74.2944348,135.79253 72.7908945,134.323515 C71.3095169,133.001604 69.1666617,132.682205 67.1803347,132.814473 C66.6601008,131.686178 67.5299496,130.41317 68.4673086,129.593223 C69.4046675,128.773275 70.5429085,127.96716 70.7470233,126.74272 C71.0681254,124.816669 68.5956848,123.353787 66.7184309,123.928077 C64.8411769,124.502368 63.6430043,126.314775 62.8509714,128.101324 C62.3965314,129.126377 62.0101877,130.205789 61.2933623,131.070123 C60.5765369,131.934457 59.4221746,132.553324 58.3303139,132.275939 C56.7845484,131.883252 56.1875522,130.057835 55.8454435,128.508887 C55.3864411,126.430698 54.9247667,124.323678 55.0209427,122.198147 C55.1171186,120.072616 55.8380179,117.890183 57.4148706,116.451276 C59.984426,114.106508 63.9262902,114.336365 67.3941138,114.710397 C66.5748126,113.79286 66.7772962,112.246526 67.6539079,111.382897 C68.5933958,110.553216 69.884361,110.237975 71.1036858,110.540495 C72.1486531,110.756702 73.0900193,111.316152 73.7762268,112.128775 C74.7616865,113.323 75.0419179,114.935432 75.7867847,116.290971 C76.5316515,117.64651 78.2065451,118.802687 79.5774436,118.075447 C80.7615381,117.447304 80.9494764,115.815279 80.654776,114.513745 C80.3600756,113.212211 79.7341629,111.946606 79.8409123,110.616743 C80.0446065,108.079212 82.6909837,106.551798 85.0262545,105.506744 C87.3615254,104.461689 90.0355574,103.056228 90.405529,100.537339 C90.4181786,100.044153 90.5117834,99.5563326 90.6826467,99.0931409 C90.9415927,98.6840325 91.3015394,98.3475799 91.7282461,98.1157891 C98.5438009,93.6387883 105.472707,89.1071365 113.262566,86.6608181 C113.66783,86.533541 113.715408,86.6749928 114.128434,86.5752799 C114.706484,86.2432059 114.323467,85.3245713 113.769252,84.954508 C113.215038,84.5844447 112.474262,84.3006502 112.333656,83.6519057 C112.230297,83.1750188 112.512979,82.7067584 112.586415,82.2244204 C112.766856,81.0391808 111.340363,79.9448673 110.232568,80.418714 C109.606829,79.5950126 110.844984,78.6379116 111.846145,78.3639342 C114.852466,77.5415462 117.938512,77.0404598 121.051843,76.8691896 C121.411107,76.812411 121.779188,76.8746415 122.099362,77.0462915 C122.622268,77.4063223 122.555459,78.2321011 122.184871,78.7459935 C121.814284,79.2598858 121.237831,79.5825395 120.776021,80.0173709 C119.7475,81.013283 119.362852,82.4957897 119.778526,83.8619046 C121.403832,84.6836637 123.17082,85.5296089 124.970925,85.2401098 C126.77103,84.9506107 128.368762,82.940251 127.522642,81.3346715 C126.734713,79.8395047 124.367926,79.5022751 123.96092,77.8636043 C123.484386,75.945011 126.216811,74.2386376 125.601311,72.3595325 C125.331703,71.5364223 124.506421,71.0520026 123.873155,70.4577445 C122.342352,68.9663964 121.89102,66.6932607 122.737034,64.7356679 C120.643959,65.1016659 118.502338,64.4355197 116.992541,62.948857 C115.618516,61.5705463 114.522339,59.3962925 112.571199,59.4579654 C110.780707,59.5145462 109.238502,61.5908478 107.564296,60.9574012 C107.152413,60.8015635 106.718143,60.4843821 106.319059,60.6702244 C106.054068,60.8412523 105.882815,61.1238059 105.854569,61.4365977 C105.429109,63.4584678 106.161015,65.7621394 105.05237,67.5092763 C103.845952,69.4105028 101.055459,69.6740887 99.5929092,71.3885228 C98.7989858,72.3191786 98.4913884,73.5732356 97.7616361,74.5544087 C97.0318839,75.5355819 95.4830089,76.1594055 94.6072468,75.3043525 C95.4936102,73.4931676 95.0036901,71.3135134 93.4261132,70.0494892 C92.6130299,69.5222144 91.736575,69.0984707 90.8173015,68.788195 C89.7900934,68.3560132 88.8129166,67.8146865 87.9028126,67.1736555 C87.4469059,66.9003069 87.0764606,66.506321 86.8328803,66.0357326 C86.640206,65.4464827 86.666162,64.8081357 86.9060488,64.2362628 C87.8111134,61.6570828 90.0791865,59.7885411 92.7968869,59.3831227 C93.9629272,59.225444 95.3200407,59.2810029 96.0917085,58.3979128 C96.5000146,57.9306532 96.7142526,57.2242048 97.3069158,57.0344313 C97.6860092,56.9587256 98.0795686,57.0068991 98.428857,57.171762 L102.78113,58.6944508 C103.266734,58.9123561 103.801234,59.0002251 104.331564,58.9493343 C104.877025,58.8762895 105.273449,58.3973946 105.240499,57.851305 C105.101439,57.1328945 103.989298,56.7881489 104.090495,56.0635229 C104.147177,55.8286995 104.274188,55.6164894 104.454753,55.4549212 C107.634975,52.0904138 112.161017,50.3138748 116.795907,50.610834 C117.345236,51.5075963 116.476453,52.5695194 115.753566,53.3350609 C115.030679,54.1006024 114.449761,55.4684372 115.323981,56.0577128 C115.682243,56.2394539 116.080757,56.3286616 116.482813,56.3171186 C117.55434,56.4612817 118.595692,56.7752351 119.567241,57.2470313 C121.071197,57.8975858 122.54629,58.609384 123.992521,59.382426 C123.864773,58.4346101 123.74285,57.4360954 124.104283,56.5498596 C124.465716,55.6636239 125.492943,54.9684916 126.390183,55.3136298 C127.254883,55.6462527 127.69835,56.7843065 128.619592,56.8885713 C129.848474,57.0276543 130.333296,55.2231387 129.819982,54.1046517 C129.306668,52.9861647 128.290495,52.0496186 128.205674,50.8231511 C128.148449,49.9957297 128.465231,48.9695453 127.800287,48.4685145 C127.563663,48.3180937 127.295064,48.2244785 127.015747,48.1950776 L110.412702,45.1582337 C109.42678,44.9778974 108.002292,45.1161149 107.958571,46.1116021 C107.934162,46.6672755 108.433533,47.2170037 108.212358,47.7279024 C107.976298,48.2731886 107.200811,48.2233342 106.635981,48.4161985 C105.759582,48.7154472 105.319806,49.7498315 105.403977,50.6671065 C105.558088,51.578558 105.91322,52.4448151 106.443901,53.2037429 C105.363969,52.7548255 103.728769,52.6723063 102.648837,52.2233932 Z" id="Path" fill="#3F3D56" fill-rule="nonzero"></path>
                <path d="M89.8867309,38.2577033 C87.8742656,37.5865843 85.6601203,38.2547789 84.3450056,39.9301097 C84.0884815,40.2704659 83.8730465,40.7396573 84.0877959,41.1082036 C84.3956934,41.6365666 85.1802139,41.4278733 85.758611,41.2388703 C86.6087492,40.9328033 87.5340655,40.9105596 88.3977197,41.1754289 C88.9408354,41.3633352 89.4267301,41.6954329 89.9722177,41.8762375 C90.5133215,42.1043014 91.1351635,42.0127309 91.5888771,41.6381733 C91.9632475,41.2534192 91.9867378,40.6552602 91.9873995,40.1164052 C92.039988,39.751245 91.9262772,39.3816666 91.6779155,39.110532 C91.4595659,38.9830914 91.2142046,38.9099603 90.9621918,38.8972074 C90.3977904,38.7919326 89.8875332,38.4914981 89.5194119,38.0477125" id="Path" fill="#3F3D56" fill-rule="nonzero"></path>
                <path d="M94.4884668,36.0028672 C93.9966507,35.96621 93.5264337,36.2830432 93.2477339,36.8388757 C92.9690341,37.3947082 92.9221518,38.1091659 93.1240285,38.7240717 C93.866741,39.0012944 94.6426891,39.0705407 95.4054149,38.9276648 C96.1833258,38.7623685 96.8123147,37.9730783 97,36.9266909 C96.102004,37.1503538 95.1753356,36.9081267 94.4007674,36.247263" id="Path" fill="#3F3D56" fill-rule="nonzero"></path>
                <path d="M115.49744,33.7632288 C113.597821,34.1683024 111.752557,34.7970109 110,35.6362871 C111.696209,36.2902245 112.767048,37.9792363 112.638071,39.7972596 C112.563925,40.137225 112.572511,40.4901013 112.663102,40.8260345 C112.865002,41.3169689 113.450066,41.5011794 113.96442,41.6271892 C114.888529,41.9092687 115.853497,42.0328027 116.818622,41.9925808 C117.799429,41.9411069 118.688036,41.396473 119.181161,40.5445612 C119.321031,40.1465706 119.485107,39.757559 119.672465,39.3797175 C120.905368,37.4964308 124.567997,39.7736041 125.891713,37.9533863 C126.358011,37.3121873 126.31536,36.3470103 126.923231,35.8389211 C127.237688,35.6175574 127.602083,35.4780796 127.983629,35.4330374 C130.645628,34.9025788 133.33455,34.5184771 136.038358,34.2824515 C137.319486,34.1706333 138.989341,33.7092476 139,32.4195017 C134.174514,31.4689717 129.17111,32.1440737 124.76763,34.3398545 C123.181103,35.1368641 121.082755,36.8133966 119.554531,35.756755 C118.982331,35.3611286 119.010663,34.2958083 118.223122,33.8509368 C117.417955,33.3961097 116.352143,33.5810971 115.49744,33.7632288 Z" id="Path" fill="#3F3D56" fill-rule="nonzero"></path>
                <path d="M130.811307,37.1638179 L133.10848,37.6178324 C132.253053,37.5788651 131.422739,37.9206789 130.829662,38.555949 C130.236586,39.1912191 129.938189,40.0584155 130.010705,40.9359918 C132.161914,41.6751752 134.50722,40.9558661 136.773278,41.0541244 C139.039337,41.1523828 141.67591,42.8173336 141.289081,45.1160533 C141.172117,45.8111084 140.781753,46.5056993 140.984747,47.1794746 C141.127026,47.651726 141.53194,47.986817 141.76049,48.4217568 C142.23675,49.3280882 141.856106,50.474463 141.254733,51.2983487 C140.65336,52.1222344 139.845036,52.779604 139.31717,53.6551655 C138.004296,55.8328169 138.750208,58.6480882 139.532282,61.0809164 C139.758415,62.0001487 140.175985,62.8578829 140.756109,63.5947893 C141.914782,64.8619573 143.802996,64.9721643 145.49404,64.9975488 C146.724841,65.0160305 148.134776,64.9534806 148.913118,63.9726118 C149.929279,62.6920381 149.218723,60.6940722 149.887743,59.191146 C150.495347,57.8261839 152.04339,57.2406008 153.445941,56.8252861 C156.015431,56.0644231 158.633995,55.4175667 161.063179,54.2682949 C164.079612,52.8411955 166.898671,50.6172151 170.214081,50.4335152 C171.144212,50.3819813 172.097393,50.4948918 172.993343,50.2327649 C173.889293,49.970638 174.740381,49.1738818 174.672553,48.2183201 C174.614596,47.4018615 173.943026,46.8023226 173.418273,46.1868378 C172.893519,45.571353 172.481422,44.6249162 172.963704,43.973723 L181.653828,42.3041689 C181.037834,40.5774375 180.557959,38.3032985 181.973447,37.1793468 C182.484165,36.7738188 183.167974,36.611734 183.602815,36.1214737 C184.343951,35.2858844 183.971266,33.846501 183.115741,33.1358782 C182.260215,32.4252555 181.103443,32.2602909 180.007566,32.1666616 C176.197142,31.8411595 172.364838,32.0562483 168.547039,32.2715003 C161.084051,32.6922707 153.621062,33.1130397 146.158071,33.5338072 C144.655709,33.6185094 142.921136,33.4891072 141.54323,34.0163051 C140.376735,34.4626305 139.547338,35.2819086 138.213203,35.5697552 C135.750331,36.1011524 133.039975,35.7415623 130.811307,37.1638179 Z" id="Path" fill="#3F3D56" fill-rule="nonzero"></path>
                <path d="M172.905283,55.7240084 C172.679246,55.68594 172.448106,55.7417351 172.259614,55.879867 C172.134978,56.0259297 172.060841,56.2128462 172.04943,56.4097843 C171.906225,57.2789466 172.076807,58.173606 172.527013,58.9145926 C172.994063,59.6548667 173.801783,60.0670387 174.636515,59.991052 C175.635324,59.8554902 176.371402,58.9485335 177.289652,58.5059702 C178.704902,57.8244847 184.715217,56.7621033 180.557603,54.3713576 C179.124801,53.5474517 178.198965,54.2747658 177.069684,54.8173653 C175.784823,55.5169742 174.345047,55.8304319 172.905283,55.7240084 Z" id="Path" fill="#3F3D56" fill-rule="nonzero"></path>
                <path d="M211.319384,36.3957314 C210.815866,36.590147 210.394641,36.9366756 210.121483,37.381207 C209.860095,37.8500128 210.033642,38.4301833 210.516052,38.7002529 C210.704119,38.7646991 210.903485,38.7945876 211.103422,38.7883106 L213.150735,38.8461153 C214.020477,38.8706729 215.106884,39.0457362 215.340598,39.8378756 C215.514141,40.4260633 215.12572,41.1818905 215.594378,41.6022211 C215.795511,41.7494248 216.037359,41.8385744 216.290832,41.8589466 C216.965241,42.0226788 217.669508,42.0441595 218.353684,41.9218653 C219.843309,41.5442425 219.060588,40.6849839 219.529752,39.919878 C220.247599,38.7492139 220.123329,39.4578718 221.3882,38.7869382 C222.322315,38.2914476 223.529388,37.3926177 222.749722,36.1297469 C221.393896,33.9336443 213.320089,35.4522913 211.319384,36.3957314 Z" id="Path" fill="#3F3D56" fill-rule="nonzero"></path>
                <path d="M251.683813,35.2299172 L250.555272,35.3912288 C248.010383,35.7549928 245.451073,36.1221057 243,36.940698 C244.060995,37.3900343 245.174145,37.6826116 246.308806,37.8103758 C246.933412,37.843171 247.55386,37.9376417 248.162256,38.0925861 C249.244861,38.4377968 250.335728,39.3292406 251.381653,38.872591 C252.030155,38.5894488 252.241777,37.8661762 252.778975,37.4828589 C253.149916,37.2181764 254.556829,36.7897737 254.714108,36.5226231 C255.985611,34.362882 252.661188,35.0902142 251.683813,35.2299172 Z" id="Path" fill="#3F3D56" fill-rule="nonzero"></path>
                <path d="M257.563298,40.1170028 C255.947844,41.0165262 254.449027,42.1095744 253.10028,43.3717655 C252.532053,43.90369 251.951659,44.5652592 252.003198,45.3401763 C252.071681,46.3701176 253.173408,46.9675343 254.12791,47.3699668 L257.994069,49 C258.463084,48.3417038 258.033816,47.4329916 257.549087,46.7860784 C257.064358,46.1391653 256.488336,45.3907029 256.702496,44.6122331 C256.946891,43.7238622 258.034607,43.4211348 258.946719,43.2680922 C260.432847,43.0187361 264.441788,43.038734 263.960091,40.6537095 C263.392511,37.8434269 259.055101,39.286637 257.563298,40.1170028 Z" id="Path" fill="#3F3D56" fill-rule="nonzero"></path>
                <path d="M256.275715,198.427276 C255.890822,199.510091 255.854307,200.785659 256.520092,201.731058 C257.267176,202.7919 258.762319,203.18734 260.05586,202.918318 C261.344,202.585276 262.492162,201.86792 263.338609,200.867301 C264.112726,200.028982 264.749564,199.079959 265.226792,198.053511 C265.892845,196.453947 266.362596,194.783682 266.626328,193.077271 L267.881626,186.672627 C268.162135,185.24123 268.151277,180.852808 265.443949,182.282604 C264.704349,182.673199 262.991924,185.757149 262.216842,186.63167 C260.819888,188.207838 260.635062,189.737187 259.899656,191.646661 C258.978519,194.038395 257.12723,196.031722 256.275715,198.427276 Z" id="Path" fill="#3F3D56" fill-rule="nonzero"></path>
                <path d="M392.396751,230.206139 C391.620521,229.865657 390.867198,229.46256 390.142671,229 C389.416141,231.245072 389.029888,233.611253 389,236 L394.311327,232.621746 C395.110319,232.113568 396.015901,231.407433 395.998722,230.375714 C396.013402,230.116179 395.900771,229.868363 395.705079,229.729627 C395.587048,229.676381 395.458531,229.65943 395.33274,229.68052 C394.545162,229.754295 393.827066,230.18989 393.084109,230.492797 C392.341153,230.795704 391.472406,230.955813 390.790736,230.506288" id="Path" fill="#3F3D56" fill-rule="nonzero"></path>
                <path d="M423.145488,233.015385 C422.525831,233.187616 421.920435,233.409454 421.334924,233.678836 C420.039293,234.351944 419.157906,235.630436 417.991987,236.516992 C416.876274,237.365371 415.533195,237.831167 414.214701,238.284058 C413.826846,238.63412 414.005068,239.339144 414.426083,239.646664 C414.878746,239.9096 415.397911,240.028753 415.917231,239.988894 C417.28701,240.019767 418.73012,240.033235 419.929916,239.357701 C420.605953,238.909937 421.238558,238.397264 421.819115,237.826666 C423.221917,236.631548 424.906538,235.843015 426.574125,235.080987 C427.181076,234.846989 427.742304,234.504367 428.231462,234.069205 C429.279345,233.01508 429.353029,231.388859 427.842053,231.030087 C426.621196,230.740172 424.30796,232.631392 423.145488,233.015385 Z" id="Path" fill="#3F3D56" fill-rule="nonzero"></path>
                <path d="M436.705665,223.962129 C436.835251,222.484332 436.334453,221.023594 435.347292,220 C435.332736,221.459258 435.29205,223.013851 434.53853,224.22054 C434.001638,225.080313 433.159844,225.661113 432.571631,226.480084 C431.983418,227.299055 431.722316,228.5972 432.412277,229.31583 C432.853289,229.681349 433.390457,229.882862 433.944587,229.890661 C435.318016,230.066752 436.907721,230.164896 437.871002,229.08416 C438.396774,228.494279 438.65252,227.620614 439.293771,227.18693 C439.532652,227.077676 439.74597,226.911409 439.917991,226.700391 C440.182767,226.241947 439.762061,225.637766 439.288494,225.472582 C438.814927,225.307398 438.293064,225.385052 437.817125,225.22817 C437.341185,225.071288 436.90454,224.48838 437.148736,224.016585" id="Path" fill="#3F3D56" fill-rule="nonzero"></path>
                <path d="M412.235064,171.021281 C411.457691,171.211688 410.652614,171.259492 409.85841,171.162404 C408.539283,170.918167 407.512595,169.916962 406.447608,169.095883 C403.915951,167.154604 400.838316,166.071681 397.657073,166.00277 C394.76317,165.947735 391.842232,166.737476 389,166.186476 C389.185694,167.226646 390.069512,168.006798 391.012514,168.470504 C391.955517,168.93421 392.996277,169.167562 393.943805,169.621827 C395.461292,170.356551 396.664908,171.617592 397.333914,173.173681 C397.639091,173.891073 397.831094,174.671769 398.293375,175.298172 C399.238229,176.578523 401.029171,176.859669 402.60975,176.754962 C404.670464,176.618447 406.822754,176.021573 408.739901,176.794772 C410.206516,177.386266 411.256196,178.679027 412.480774,179.684232 C413.705352,180.689438 415.430159,181.435487 416.836307,180.710196 C413.83849,179.732763 411.819996,176.905799 411.854229,173.73264 C413.233367,173.86036 417.205646,173.810931 416.991681,171.450952 C416.810385,169.450903 413.419281,170.805409 412.235064,171.021281 Z" id="Path" fill="#3F3D56" fill-rule="nonzero"></path>
                <path d="M395.08632,187.806844 C395.330586,186.461669 396.666625,185.273778 396.250455,183.971845 C395.962644,183.071484 394.922934,182.626966 393.981422,182.604766 C393.03991,182.582567 392.11498,182.864162 391.173581,182.890678 C390.560824,182.858017 389.946573,182.866777 389.334987,182.916899 C387.466248,183.225331 386.3144,185.192013 384.553294,185.891298 C383.482448,186.316498 382.279445,186.235213 381.165742,186.529159 C378.637649,187.196407 377.03804,189.595047 375.27081,191.528957 C372.415404,194.639732 368.695486,196.817948 364.592906,197.781454 C363.155489,198.115642 361.61028,198.329447 360.467733,199.266803 C358.95472,200.508089 358.582281,202.636072 358.245661,204.568538 C357.315636,209.905516 355.894321,215.144314 354,220.21754 L360.002914,220.98709 C361.144208,221.133402 362.326801,221.276575 363.426575,220.93715 C364.225613,220.634495 364.98247,220.229701 365.678442,219.73277 C368.351954,218.066151 371.344166,216.981675 374.461467,216.549511 C376.033451,216.332816 377.681574,216.29311 379.156774,216.879801 C380.631974,217.466492 381.897554,218.796969 382.021188,220.385291 C383.321076,219.979242 384.738034,220.325256 385.707014,221.285352 C386.647022,222.247021 387.262546,223.480787 387.466727,224.812552 C387.624851,225.637153 387.783059,226.625188 388.545137,226.971118 C389.166864,227.253343 389.880066,226.949375 390.5602,226.894729 C392.868115,226.709311 394.783239,229.411331 397.051683,228.946041 C399.484549,228.447024 400.081835,224.78865 402.455266,224.055833 C403.818417,223.63495 405.730479,224.146743 406.383225,222.873598 C406.95857,221.751437 405.810685,220.456476 405.929061,219.199956 C406.074818,217.652763 407.892435,216.996053 409.29365,216.335895 C414.124441,214.059957 416.416817,207.531686 414.075931,202.7169 C412.688963,199.864151 409.959941,197.618526 409.455943,194.484603 C409.068175,192.07342 410.014819,189.261724 408.48374,187.363812 C407.704869,186.398335 406.386136,185.865411 405.922667,184.713384 C405.630931,183.988224 405.748188,183.165465 405.591192,182.399433 C405.434195,181.633401 404.768586,180.832119 404.015199,181.030673 C401.828265,181.607033 401.130421,188.390312 399.959547,190.038463 C398.179701,192.543762 394.525824,190.893508 395.08632,187.806844 Z" id="Path" fill="#3F3D56" fill-rule="nonzero"></path>
                <path d="M354.095214,173.24749 C353.351089,173.053036 352.538546,172.861479 351.825558,173.139365 C351.112569,173.417251 350.696187,174.392847 351.268428,174.876932 C355.745195,174.714405 360.249371,174.553009 364.688086,175.119605 C369.802203,175.772414 374.863442,177.389458 380,176.91373 C377.065857,176.106997 374.083287,175.461987 371.067777,174.982048 L366.039216,174.086809 C364.690242,173.82349 363.327198,173.627204 361.955858,173.498782 C359.087092,173.277976 356.915801,173.984566 354.095214,173.24749 Z" id="Path" fill="#3F3D56" fill-rule="nonzero"></path>
                <path d="M359.149858,157.59358 C358.790171,157.561412 358.344695,157.533698 358.158616,157.864943 C357.980834,158.181431 358.184328,158.599577 358.088728,158.954477 C357.958122,159.439313 357.36531,159.563172 356.898241,159.497163 C356.431171,159.431155 355.926031,159.27307 355.512225,159.514288 C355.081148,159.829691 354.89611,160.41196 355.058022,160.943559 C355.227209,161.45741 355.50083,161.924602 355.859122,162.311389 C356.471099,163.137386 357.168397,163.886534 357.9377,164.544528 C359.426798,165.721866 361.444199,166.289228 362.382087,167.998298 C362.514395,168.329543 362.717756,168.622707 362.975665,168.853994 C363.425908,169.159471 364.013101,168.927076 364.497861,168.689826 L366.197121,167.858192 C366.503209,167.740093 366.776462,167.541039 366.991488,167.279524 C367.379707,166.715315 367.141256,165.913114 366.815409,165.305304 C366.489562,164.697495 366.072461,164.068466 366.142389,163.371598 C366.267065,162.129098 367.758571,161.653831 368.371857,160.590752 C368.990028,159.519194 368.587597,158.138529 368.65885,156.881111 C368.742228,155.410654 369.604866,153.497931 368.216958,152.399271 C367.037411,151.465548 365.909997,152.328304 365.063128,153.359154 C363.277251,155.532997 362.43281,157.887225 359.149858,157.59358 Z" id="Path" fill="#3F3D56" fill-rule="nonzero"></path>
                <path d="M369.333263,136.417804 C369.949646,137.645507 371.23462,138.378155 371.90676,139.573775 C372.635302,140.869716 372.552296,142.544128 373.342663,143.800254 C374.153552,145.089009 375.785413,145.773225 376.240177,147.23905 C376.736662,148.839367 375.61018,150.784444 376.508128,152.182733 C376.846707,152.644842 377.356009,152.938129 377.912208,152.991289 C378.468408,153.044448 379.020556,152.852611 379.434412,152.462418 C380.221687,151.570703 380.182387,150.188763 379.345816,149.34702 C378.814161,148.842763 378.050746,148.624856 377.606848,148.035859 C377.375669,147.69595 377.221668,147.30589 377.156451,146.895073 C376.914475,145.710085 376.953236,144.48165 377.269389,143.315718 C377.388171,143.019813 377.418332,142.693502 377.355927,142.379474 C377.156089,141.775208 376.369546,141.732337 375.81752,141.452011 C374.563723,140.81534 374.594151,138.974639 374.813206,137.541238 C374.667363,138.495533 371.39965,136.872452 371.057471,136.3319 C370.377716,135.258067 370.747675,133.186641 370.613107,132 C369.145583,132.735632 368.579642,134.91672 369.333263,136.417804 Z" id="Path" fill="#3F3D56" fill-rule="nonzero"></path>
                <path d="M336.916001,153.13018 C336.323969,152.432809 335.432237,151.703262 334.638518,152.123841 C334.032958,152.444708 333.866381,153.326318 334.103724,153.994593 C334.392861,154.643713 334.838041,155.202162 335.395228,155.614699 C337.049306,157.050113 338.830462,158.345633 340.273479,160.014219 C342.855849,163.000291 344.223831,167.029504 347.032277,169.780371 C347.596794,170.418137 348.344289,170.843807 349.160462,170.992293 C349.978679,171.072386 350.897498,170.521292 350.99155,169.662311 C351.069021,168.954731 350.600228,168.321403 350.142098,167.797057 C349.051152,166.548432 347.85682,165.399117 346.826828,164.094437 C346.351138,163.593288 346.052199,162.936351 345.979418,162.232208 C345.974193,161.529717 346.583004,160.79445 347.229847,160.968418 C346.443159,160.756839 345.85973,159.377778 344.705112,159.118543 C343.740183,158.901906 343.506751,159.530464 342.35839,159.012226 C340.168174,158.023796 338.449807,154.936901 336.916001,153.13018 Z" id="Path" fill="#3F3D56" fill-rule="nonzero"></path>
                <path d="M387.497218,88.7601384 C386.874556,88.5760619 386.262384,88.3585461 385.663396,88.1085485 C384.051716,87.6273421 381.919294,88.8056693 382.134122,90.4657365 C382.276858,91.5687179 383.308861,92.3123532 383.878783,93.2690898 C384.723981,94.6878994 384.498658,96.4874516 384.054511,98.0763613 C383.945469,98.5683357 383.738093,99.0334804 383.444713,99.444143 C383.03454,99.8777027 382.544197,100.228558 382.000515,100.477509 C379.824021,101.691508 377.90462,103.313472 376.348423,105.253732 C376.179232,105.432924 376.061372,105.653915 376.007091,105.89374 C375.930227,106.454235 376.496639,106.862529 376.816871,107.330008 C377.528214,108.36845 377.014067,109.765797 377.08439,111.020432 C377.062414,111.381122 377.229625,111.727445 377.526384,111.935876 C377.955129,112.152508 378.46318,111.784535 378.695567,111.36575 C379.466762,109.975993 378.885816,107.7452 380.332549,107.075122 C380.606214,106.948369 380.937985,106.894932 381.120554,106.655809 C381.410204,106.276471 381.130753,105.714796 381.27754,105.261384 C381.497928,104.580616 382.433999,104.550056 383.152373,104.58025 C384.389845,104.631722 385.626851,104.467914 386.807683,104.096201 C387.270897,103.986644 387.691617,103.744312 388.017717,103.39923 C388.450195,102.862361 388.411866,102.099001 388.32545,101.416442 C387.892607,98.0135763 386.808952,94.7245694 385.132975,91.7269446 C386.403821,91.888422 387.786449,92.0282612 388.883093,91.3694822 C389.497168,91.0005881 390.233551,89.8974275 389.928989,89.1465697 C389.447351,87.959178 388.577278,88.9586323 387.497218,88.7601384 Z" id="Path" fill="#3F3D56" fill-rule="nonzero"></path>
                <path d="M223.856546,108.006146 C224.010483,108.827835 224.161799,109.693036 223.891239,110.484319 C223.620678,111.275602 222.769555,111.936761 221.965854,111.694308 C221.342117,111.506145 220.981819,110.881942 220.538913,110.40605 C218.075859,107.759557 212.518827,109.291787 210.997258,106.017634 C210.376273,104.681362 210.798289,103.080452 210.374725,101.669849 C209.825152,99.992999 208.205883,98.8981562 206.437128,99.0075067 C205.652779,99.1202531 204.889328,99.3470752 204.171229,99.6807076 C199.36049,101.598289 194.309987,102.855529 189.158671,103.417837 C188.179692,103.477203 187.211321,103.652569 186.274076,103.94022 C184.158903,104.703432 182.713671,106.65514 181.685159,108.646742 C180.656647,110.638345 179.897347,112.794466 178.518423,114.563878 C177.069226,116.423474 175.038473,117.725664 173.144168,119.134169 C172.414436,119.60225 171.806802,120.236097 171.371267,120.983555 C170.960594,121.822688 170.983761,122.798728 171.015638,123.731578 L171.402792,135.06148 C171.45259,136.518785 171.515119,138.028181 172.17045,139.332325 C172.988785,140.960851 174.605379,142.027463 175.726869,143.466074 C176.871367,144.944497 177.46755,146.771051 177.414537,148.636661 C177.390666,149.386704 177.315784,150.273839 177.902695,150.744899 C178.259728,150.975293 178.677504,151.094877 179.102964,151.088463 L194.501616,152.34282 C197.210349,152.563469 200.212254,152.926263 201.980737,154.980235 C202.815378,155.949615 203.485857,157.343638 204.764272,157.447653 C205.312632,157.492262 205.8462,157.268223 206.39467,157.22499 C207.778429,157.115915 208.994045,158.161217 209.76122,159.31258 C210.922347,161.067458 211.449408,163.163146 211.255856,165.255517 C211.130064,166.568908 210.720922,167.845757 210.632716,169.162192 C210.297082,174.171216 214.563477,178.52309 214.646174,183.542568 C214.694819,186.495075 213.286575,189.253717 211.913612,191.871417 C214.12951,195.212481 212.315019,199.661511 213.197219,203.567385 C214.034183,207.27299 217.138518,210.173962 217.912067,213.893192 C218.26619,215.59585 218.286677,217.691147 219.795197,218.568101 C220.457125,218.88921 221.19092,219.035443 221.926039,218.992741 C226.360158,219.045017 230.743722,218.051755 234.718115,216.094213 C236.583435,215.172936 238.516592,213.797615 238.842358,211.75059 C239.105069,210.099796 238.263953,208.253301 239.119953,206.815374 C240.128814,205.120634 242.713295,205.254983 244.197673,203.951995 C246.605797,201.83817 244.72798,197.806799 245.703678,194.762179 C246.580713,192.025439 249.599751,190.571511 251.096265,188.115252 C251.685196,187.058903 252.10782,185.918883 252.34939,184.734973 C253.034959,181.905384 253.461698,179.019824 253.624379,176.113634 C253.664259,174.347891 253.795065,172.585344 254.016283,170.832933 C255.62976,160.85616 265.539616,154.175538 268.757042,144.591185 C269.06431,143.675872 269.208608,142.456686 268.390464,141.938761 C267.905187,141.70833 267.355048,141.651023 266.832349,141.776454 L259.733918,142.66716 C258.852236,142.777792 257.917668,142.881195 257.107972,142.516713 C256.298275,142.152231 255.717971,141.132747 256.147455,140.358448 C257.353084,138.184913 254.873068,135.43827 253.771289,133.210807 C250.804038,127.212993 247.270544,121.509555 243.218506,116.177483 C242.959119,115.903188 242.796687,115.552181 242.755846,115.177702 L244.770463,115.244465 C244.090405,112.815713 242.968114,110.157941 240.597351,109.269493 C239.261436,108.768856 237.782011,108.941967 236.356659,109.019485 C232.274077,109.241464 227.89723,108.627977 223.856546,108.006146 Z" id="Path" fill="#3F3D56" fill-rule="nonzero"></path>
                <path d="M235.260194,53.4756367 C236.328069,54.6065012 237.524714,55.805494 239.069805,56.0025996 C241.798837,56.3507735 243.760994,53.5365747 245.010261,51.0921417 C245.106421,52.3879304 246.219452,53.3719485 247.52103,53.3118829 C248.194664,53.1988597 248.837599,52.9482012 249.40948,52.5756397 C254.816539,49.6290119 260.872869,48.0677741 267.034551,48.032141 C266.911978,47.0680959 267.53936,46.1674405 268.488085,45.9454817 C269.740871,45.6978072 270.869367,46.7779084 271.473705,47.8999002 C272.078042,49.0218921 272.454872,50.3223734 273.415031,51.1621975 C274.37519,52.0020217 276.234128,51.9654361 276.613382,50.7492813 C276.977482,49.5817171 275.75773,48.5860311 274.744355,47.8976768 C273.73098,47.2093224 272.662847,45.9352817 273.345275,44.9194451 C278.522428,43.7766433 283.731696,42.6295128 289.029278,42.4023652 C289.931204,42.4336749 290.829923,42.2792883 291.669356,41.9488392 C292.477252,41.5534908 293.119389,40.6560639 292.902139,39.7851916 C290.537529,40.3394935 288.071657,39.411988 286.66318,37.4384893 C294.013933,36.8335907 301.832241,36.3179981 308.346697,39.7671715 C309.128435,41.440682 305.144175,42.833031 306.210184,44.3424496 C306.550169,44.8238576 307.231435,44.8803148 307.821789,44.8912419 C312.34876,44.9750569 316.901861,45.0572445 321.377732,44.3756916 C323.013405,44.1266264 324.665533,43.77502 326.307726,43.9769953 C329.043002,44.3133925 331.382475,46.1333511 334.073471,46.7267266 C335.168734,46.9682422 336.396811,46.9764217 337.320078,46.3411598 C338.243346,45.7058979 338.640208,44.2593997 337.883616,43.4335715 C340.417292,40.9572831 344.622414,41.5710164 347.964952,42.7565416 C351.307491,43.9420668 354.474059,45.8539226 358.011813,46.11818 C360.548703,46.3076769 363.120843,45.6271976 365.627598,46.0597192 C367.202849,46.331522 368.668909,47.0303511 370.208493,47.4596938 C373.120359,48.2717205 376.200622,48.1003072 379.223947,48.1393868 C386.937924,48.2430208 394.567618,49.7548564 401.735304,52.600047 C402.66772,52.902773 403.522042,53.4061125 404.237836,54.074461 C404.904766,54.7866646 405.244899,55.8933839 404.796652,56.7592724 L397.390064,55.6800927 C398.087909,57.0500169 399.893275,57.2834672 401.359411,57.7560617 C402.825548,58.2286561 404.345705,59.8432324 403.464598,61.1037591 C401.876028,60.5993641 400.436462,62.1831798 399.634,63.640419 C398.831538,65.0976583 397.853644,66.8428732 396.188875,66.9316424 C394.698119,67.0111373 392.895185,65.7453225 391.923484,66.8755191 C393.265929,68.564323 394.415488,70.3970363 395.350882,72.3397362 C396.31088,74.3341347 396.994638,76.8471439 395.697102,78.6415412 C395.492965,78.9618715 395.183333,79.2013106 394.8214,79.3187233 C393.761706,79.5862398 393.073183,78.2934857 392.313217,77.5099454 C391.355588,76.5225657 389.907362,76.2429005 388.61052,75.7798339 C387.313679,75.3167673 385.947569,74.4058348 385.846101,73.0359402 C385.782971,72.183625 386.234232,71.3913219 386.56662,70.6035841 C387.125292,69.2758082 387.369623,67.8375105 387.280649,66.4003292 C387.207888,65.2441105 386.882773,64.0413895 386.050084,63.2335391 C385.217394,62.4256888 383.779752,62.1694121 382.885831,62.9093202 C382.468719,63.2545605 382.13444,63.8067979 381.59277,63.8274473 C380.635689,63.863961 379.900847,62.2000121 379.130838,62.7680123 C379.221184,63.3732242 379.095344,63.9908486 378.775318,64.5129145 C376.477544,66.505732 372.947618,65.6626572 369.985346,66.3666265 C368.576741,66.7686272 367.22811,67.3559462 365.975034,68.1130884 C365.506277,68.3129685 365.107401,68.6468411 364.828747,69.0725692 C364.45898,69.789131 364.866661,70.7068565 365.518424,71.1833019 C366.209608,71.6060302 366.986316,71.8703996 367.792443,71.9573143 C371.403812,72.639366 375.067857,73.6952079 377.919035,76.0083385 C380.770212,78.3214691 382.639946,82.1452061 381.737704,85.6983663 L374.615918,78.9123337 C374.886414,81.7616415 375.039917,84.6187976 375.076428,87.4838021 C375.12248,88.0432043 375.045435,88.6058861 374.850679,89.1324996 C374.342968,90.2507588 372.966918,90.6270641 371.761099,90.8739228 C371.082734,91.0024439 370.491726,91.4138039 370.136829,92.004465 C369.781931,92.595126 369.696946,93.3088328 369.903264,93.9659481 C370.331685,95.3584873 371.399903,96.4441767 372.378014,97.5259857 C373.356125,98.6077947 374.318666,99.8373156 374.446712,101.288307 C374.574758,102.739299 373.476986,104.374795 372.019819,104.273911 C370.915176,104.197426 370.095635,103.21131 369.624468,102.212052 C369.153301,101.212794 368.872946,100.099645 368.165,99.2505893 C366.022239,96.6806959 361.209317,97.7817466 359.289736,95.0420378 C358.294875,96.1674012 357.955206,97.7261789 358.392017,99.1617736 C359.28504,98.6042862 360.507572,99.1222628 361.178525,99.9323028 C361.849478,100.742343 362.166004,101.78087 362.692917,102.690674 C363.403932,103.918352 364.535489,105.006705 364.634735,106.420975 C364.608423,106.955759 364.617463,107.49169 364.661797,108.025288 C364.83809,108.882207 365.564412,109.497504 366.067998,110.213766 C367.239774,111.880395 367.181874,114.169942 366.426613,116.060933 C365.671352,117.951924 364.31447,119.532028 362.9705,121.063977 C360.623083,123.739734 358.227754,126.399805 355.444811,128.621879 C354.650717,129.255945 353.803237,129.879409 353.308663,130.765866 C352.814088,131.652324 352.788727,132.896597 353.548731,133.570914 C353.00493,133.598073 352.029684,133.86479 351.485883,133.891949 C351.294695,131.716548 351.253142,129.530644 351.361517,127.34958 C349.2155,126.322022 346.904856,129.073871 347.181782,131.431695 C347.458708,133.789518 349.168855,135.681625 350.386424,137.721558 C351.27681,139.213303 351.938526,140.952718 351.641266,142.66322 C351.344005,144.373722 349.812861,145.951675 348.078586,145.800814 C345.320021,145.560858 344.166151,141.611728 341.434465,141.159766 C341.193537,141.10336 340.940643,141.128397 340.71554,141.230942 C340.310039,141.452865 340.239553,141.993935 340.216786,142.454634 C340.105026,144.715775 340.008264,147.066798 340.893406,149.151521 C342.18831,152.201347 345.533541,154.762841 344.831809,158 C341.051587,156.247713 339.086141,152.020279 338.193763,147.959613 C337.301384,143.898947 337.152657,139.636022 335.553007,135.797245 C334.338337,137.349767 331.785234,136.066342 330.675419,134.437631 C329.623258,132.893524 328.975454,131.107328 327.954644,129.542433 C326.933835,127.977537 325.370042,126.576273 323.499938,126.490227 C321.539232,126.399995 319.838762,127.74175 318.343335,129.009522 C317.113647,130.05201 315.851128,131.135522 315.132335,132.576593 C314.086346,134.673609 314.359961,137.145763 314.309556,139.487329 C314.255052,142.018777 313.717062,144.689665 311.986899,146.542878 C310.256735,148.396091 307.063234,149.041583 305.154865,147.371369 C304.158565,146.499398 303.676173,145.196621 303.246493,143.946104 C301.175299,137.918121 299.45035,131.777309 298.080038,125.553547 C297.759375,126.974061 296.508526,128.804963 295.313581,127.9682 C295.04545,127.743258 294.828221,127.464153 294.676238,127.149317 C292.44727,123.382049 288.319459,121.122396 284.148821,119.767525 C279.978183,118.412653 275.590143,117.780663 271.465757,116.291627 C269.15448,115.456852 266.946922,114.360295 264.88642,113.023484 C263.816333,114.591277 263.694906,116.618077 264.570194,118.301768 C265.485077,119.917181 267.555369,120.85184 269.327561,120.287192 C270.243364,119.995399 271.016755,119.361418 271.925449,119.048295 C272.834143,118.735173 274.053793,118.888934 274.451143,119.761966 C274.831482,120.597601 274.256601,121.608488 274.541776,122.480991 C274.976115,123.809862 276.985951,123.912242 277.688747,125.121507 C278.211654,126.021234 277.781402,127.215999 277.034788,127.942013 C276.288174,128.668026 275.292031,129.06622 274.380641,129.571608 C271.423465,131.21142 269.320558,134.010706 266.736163,136.188607 C264.151768,138.366508 260.505484,139.956593 257.42548,138.55959 C258.159665,134.852356 253.73124,132.130608 252.916562,128.440135 C252.64841,127.225447 252.787418,125.935119 252.40459,124.751386 C251.850323,123.037528 250.325533,121.859146 249.074658,120.560352 C246.009531,117.343251 244.377987,113.027605 244.550489,108.593335 C244.618083,107.068116 244.899082,105.518053 244.550637,104.03141 C244.202191,102.544767 242.9679,101.105861 241.438404,101.173237 C237.945061,101.327104 233.544198,101.586225 231.711393,98.6166166 C231.05726,97.5567506 230.772598,96.0044564 231.718353,95.1924466 C232.385525,94.6196275 233.370346,94.6735865 234.246502,94.7595362 L242.117509,95.531659 C243.958423,95.7122494 245.948407,95.8612844 247.528135,94.9015669 C249.107862,93.9418494 249.792371,91.3943385 248.329605,90.2652325 C247.260814,89.4402243 245.345931,89.4849597 245.035246,88.1732386 C244.776496,87.0807815 245.98908,85.8412551 245.334172,84.9282766 C244.864586,84.2736504 243.808856,84.4552637 243.169118,84.9460051 C242.529381,85.4367465 242.065221,86.1544158 241.349251,86.5259783 C240.09329,87.1777978 238.592598,86.5574533 237.241333,86.1358504 C235.890067,85.7142475 234.078551,85.6784439 233.423133,86.9299669 C232.690135,88.3296414 234.073298,90.1637016 233.345845,91.5662337 C232.384071,93.4205586 229.127002,92.3649408 227.776271,93.9599541 C226.226322,95.7902183 228.830967,98.5194017 228.308258,100.857586 C226.950759,101.528019 225.339832,101.437766 224.066182,100.619922 C222.811495,99.7689115 222.127394,98.2990894 222.285554,96.794164 C222.414939,95.7423337 222.964849,94.6686408 222.596392,93.6746626 C222.298487,92.871014 221.489332,92.3925818 220.737314,91.978165 L213.088466,87.7632855 C212.378324,89.0769596 213.276103,90.7055614 214.39891,91.6922563 C215.521717,92.6789512 216.92808,93.4220931 217.665673,94.7206384 C218.634218,96.5882012 217.976864,98.8848983 216.165706,99.9613008 C215.944436,100.113606 215.667436,100.16179 215.407524,100.093186 C215.160975,99.9487136 214.983591,99.7108481 214.915807,99.4338089 C213.566237,95.9898264 211.540009,92.594202 208.300557,90.7951211 C205.061105,88.9960402 200.406347,89.3659372 198.282055,92.3965807 C197.777489,93.1164185 197.438848,93.9369375 196.999304,94.6979895 C194.66407,98.7413542 189.65772,100.656038 184.980329,100.530971 C184.522759,100.556207 184.067576,100.449545 183.669165,100.223728 C182.913229,99.7030966 182.947272,98.5983344 183.062996,97.6894901 L183.553975,93.8325618 C183.652569,93.0580633 183.795434,92.2019902 184.410149,91.7185193 C185.276661,91.0370087 186.526654,91.4670912 187.630148,91.4512438 C189.342715,91.3712947 190.822551,90.2324101 191.334137,88.6006453 C191.788447,86.9612609 191.295624,85.2057846 190.053781,84.0399126 C189.548012,83.566198 188.869158,82.9711443 189.136296,82.3325387 C189.352075,81.9749549 189.715479,81.7309256 190.128887,81.6660047 C192.111051,81.0919978 194.205479,80.9415467 196.154597,80.2642631 C198.103714,79.5869796 199.993935,78.2012798 200.455527,76.1951258 C200.596985,75.5803315 200.661387,74.8355876 201.215167,74.5307796 C201.493034,74.4137883 201.791435,74.3529918 202.093052,74.3519181 C204.283386,74.0411754 205.873368,72.1141915 205.757301,69.9110196 C206.691412,69.2601343 208.000126,69.7389257 208.90381,70.4312155 C209.807493,71.1235053 210.605322,72.0381407 211.704904,72.3365658 C213.754069,72.8927259 215.734359,71.0834661 217.858045,71.0750796 C218.751118,71.0715542 219.675628,71.3864438 220.515816,71.0845102 C221.36756,70.7784214 221.876203,69.9329202 222.529912,69.308281 C223.183621,68.6836418 224.330641,68.3026529 224.934267,68.9755487 L224.420248,65.1787637 C226.51457,65.7063648 228.735352,65.3059836 230.511844,64.0805198 L223.868571,61.842137 C223.637257,61.7845479 223.423836,61.6707544 223.247349,61.5109096 C222.764368,60.9922862 223.244094,60.1841061 223.636836,59.5945646 C224.576377,58.184225 224.734095,55.8610551 223.189047,55.1589119 C222.134444,54.6796513 220.923933,55.2549348 219.911699,55.8177611 L215.062945,58.513787 C214.908859,59.4328736 216.035939,59.9537585 216.73436,60.5728433 C217.59928,61.3395166 217.902679,62.5574957 217.498054,63.6386491 C217.093429,64.7198025 216.064006,65.4417511 214.906867,65.4558842 C215.553643,66.2944029 215.783101,67.3806491 215.530487,68.4080938 L212.268124,68.6420683 C211.901986,68.7155262 211.521574,68.6414855 211.210007,68.4361237 C210.861087,68.1271013 210.908406,67.5855839 210.827536,67.1272643 C210.63235,66.021065 209.546146,65.2457549 208.437594,65.0469584 C207.329042,64.8481619 206.194968,65.102976 205.097255,65.3545817 C204.631144,65.5218452 204.11928,65.5100657 203.661402,65.3215384 C203.398846,65.1514519 203.199337,64.9003383 203.09335,64.6065533 C202.612098,63.4429372 203.06193,62.0752069 203.834859,61.0801085 C204.607789,60.0850101 205.66588,59.3575635 206.616158,58.5291398 C208.888653,56.5407855 210.558289,53.958344 211.436456,51.0735382 C213.232395,50.3231723 215.091697,49.3036497 216.887615,48.5532668 C219.65645,47.1553268 222.761472,46.5554042 225.853516,46.8209615 L231.935586,46.9368095 C233.73629,46.9711082 235.585703,47.0150574 237.250773,47.6996327 C238.915843,48.384208 240.378897,49.8648485 240.493853,51.6571914 C240.564339,52.0696755 240.416995,52.4893002 240.10387,52.7678377 C239.868725,52.8958062 239.602386,52.9556719 239.334926,52.9406755 C237.655554,52.9995295 236.939528,53.4168039 235.260194,53.4756367 Z" id="Path" fill="#3F3D56" fill-rule="nonzero"></path>
                <path d="M188.017322,72.9336312 C188.496194,72.4932079 188.681381,71.8295919 188.497067,71.2144693 C187.331168,70.7773367 186.011035,71.0195331 185.08948,71.8396376 C184.733293,72.189679 184.426327,72.5839594 184.17657,73.01222 C183.386518,74.2645596 182.687725,75.76045 183.145588,77.1603385 C183.220972,77.4687425 183.421059,77.7346342 183.700663,77.897969 C183.905866,77.9779913 184.127101,78.0116608 184.34766,77.996434 C185.218004,77.995335 186.087491,77.9433397 186.951404,77.8407303 C187.481946,77.7777062 188.098159,77.63214 188.303195,77.1525664 C188.572717,76.5221624 187.920369,75.8087278 188.110542,75.1515792 C188.235656,74.8577126 188.425255,74.5939064 188.666112,74.3785648 C188.908375,74.1587212 189.029794,73.8407804 188.993759,73.5206104 C188.917012,73.2122686 188.431069,73.0373441 188.256141,73.3052373" id="Path" fill="#3F3D56" fill-rule="nonzero"></path>
                <path d="M192.204522,67.1866333 C191.44761,67.0073021 190.667392,66.9567456 189.894685,67.0369606 C189.72379,67.0317088 189.554412,67.0714275 189.402502,67.1523761 C189.255311,67.2643827 189.148568,67.4238851 189.099198,67.6055933 C188.760777,68.726461 189.313767,69.9275296 190.369622,70.3648933 C190.647127,70.4307265 190.912943,70.5409502 191.157429,70.6915666 C191.810719,71.214585 191.394251,72.2836364 191.517921,73.1272454 C191.656791,74.0745446 192.545435,74.869699 192.38251,75.8129092 C192.254155,76.5559984 191.485001,77.1443989 191.608827,77.888322 C191.738528,78.6674674 192.696697,78.9015916 193.460452,78.9639852 C193.903086,79.043964 194.358692,78.9900837 194.772313,78.8088436 C195.186894,78.5163265 195.481756,78.0756997 195.599977,77.5720237 C195.912658,76.6116598 196.044048,75.5983544 195.987036,74.586951 C195.98367,74.1269458 195.871702,73.6747184 195.660826,73.2694173 C195.430833,72.9483306 195.175889,72.6470985 194.898518,72.3687059 C193.435232,70.6123682 194.975981,67.9925733 192.204522,67.1866333 Z" id="Path" fill="#3F3D56" fill-rule="nonzero"></path>
                <path d="M392,204 C392,204 275.983002,137.5 226.036106,150.1 C226.036106,150.1 120.183742,161.475 107.916082,186.5 C107.916082,186.5 74.2676475,81.5 62,78" id="Path" stroke="#1F78D1" stroke-width="2" opacity="0.8"></path>
                <path d="M107.916091,186.596683 C127.369095,135.082874 302.621357,78 302.621357,78 C277.735541,84.2651918 226.036117,150.39779 226.036117,150.39779 C226.036117,150.39779 116.678697,71.3867385 62,78.696131 C62,78.696131 302.796609,86.5276218 392,204" id="Path" stroke="#1F78D1" stroke-width="2" opacity="0.8"></path>
                <circle id="Oval" fill="#FFFFFF" fill-rule="nonzero" cx="62" cy="78" r="5"></circle>
                <circle id="Oval" fill="#FFFFFF" fill-rule="nonzero" cx="107" cy="187" r="5"></circle>
                <circle id="Oval" fill="#FFFFFF" fill-rule="nonzero" cx="302" cy="77" r="5"></circle>
                <circle id="Oval" fill="#FFFFFF" fill-rule="nonzero" cx="391" cy="205" r="5"></circle>
                <circle id="Oval" fill="#FFFFFF" fill-rule="nonzero" cx="225" cy="150" r="5"></circle>
            </g>
        </g>
    </g>
</svg>