<svg width="28" height="28" viewBox="0 0 28 28" fill="none" xmlns="http://www.w3.org/2000/svg">
<path fill-rule="evenodd" clip-rule="evenodd" d="M18.1285 5.12354L17.5 2.33337L16.8715 5.12355C16.3383 7.49022 14.4902 9.3384 12.1235 9.87152L9.33331 10.5L12.1235 11.1286C14.4902 11.6617 16.3383 13.5099 16.8715 15.8765L17.5 18.6667L18.1285 15.8765C18.6616 13.5099 20.5098 11.6617 22.8765 11.1286L25.6666 10.5L22.8765 9.87152C20.5098 9.3384 18.6616 7.49021 18.1285 5.12354ZM8.61559 15.993L8.16665 14L7.7177 15.993C7.3369 17.6835 6.01677 19.0036 4.32629 19.3844L2.33331 19.8334L4.32629 20.2823C6.01677 20.6631 7.3369 21.9832 7.7177 23.6737L8.16665 25.6667L8.61559 23.6737C8.99639 21.9832 10.3165 20.6631 12.007 20.2823L14 19.8334L12.007 19.3844C10.3165 19.0036 8.99639 17.6835 8.61559 15.993Z" fill="url(#paint0_linear_550_3105)"/>
<defs>
<linearGradient id="paint0_linear_550_3105" x1="2.33331" y1="18.616" x2="14" y2="18.616" gradientUnits="userSpaceOnUse">
<stop stop-color="#A5E4FF"/>
<stop offset="0.535" stop-color="#245A68"/>
<stop offset="1" stop-color="#113B46"/>
</linearGradient>
</defs>
</svg>