<?xml version="1.0" encoding="iso-8859-1"?>
<!-- Generator: Adobe Illustrator 19.0.0, SVG Export Plug-In . SVG Version: 6.00 Build 0)  -->
<svg version="1.1" id="Layer_1" xmlns="http://www.w3.org/2000/svg" xmlns:xlink="http://www.w3.org/1999/xlink" x="0px" y="0px"
	 viewBox="0 0 512 512" style="enable-background:new 0 0 512 512;" xml:space="preserve">
<g>
	<g>
		<g>
			<path d="M256,0c-82.21,0-149.092,66.84-149.092,148.998c0,44.531,19.655,84.556,50.744,111.883v240.657
				c0,3.817,2.079,7.331,5.425,9.169c1.571,0.864,3.306,1.293,5.038,1.293c1.953,0,3.903-0.546,5.611-1.632l81.662-51.865
				l81.866,51.723c1.703,1.076,3.643,1.617,5.588,1.617c1.736,0,3.475-0.431,5.049-1.299c3.339-1.84,5.412-5.351,5.412-9.163
				V261.799c31.695-27.344,51.79-67.771,51.79-112.802C405.092,66.84,338.21,0,256,0z M199.502,469.204l-20.925,13.293V276.288
				c6.651,4.055,13.646,7.597,20.925,10.587V469.204z M290.527,455.954l-29.565-18.682c-1.708-1.078-3.648-1.616-5.589-1.616
				c-1.948,0-3.897,0.544-5.609,1.631l-29.336,18.629V293.7c11.404,2.801,23.316,4.297,35.573,4.297
				c11.882,0,23.44-1.404,34.527-4.042V455.954z M332.377,482.395l-20.925-13.219V287.303c7.276-2.923,14.268-6.405,20.925-10.39
				V482.395z M256,277.072c-70.672,0-128.167-57.453-128.167-128.074c0-70.619,57.495-128.073,128.167-128.073
				s128.167,57.453,128.167,128.073C384.167,219.618,326.672,277.072,256,277.072z"/>
			<path d="M256,41.823c-59.134,0-107.242,48.079-107.242,107.177S196.867,256.176,256,256.176
				c59.134,0,107.242-48.079,107.242-107.177S315.134,41.823,256,41.823z M256,235.252c-47.595,0-86.316-38.692-86.316-86.252
				c0-47.56,38.721-86.252,86.316-86.252S342.316,101.44,342.316,149C342.316,196.56,303.595,235.252,256,235.252z"/>
		</g>
	</g>
</g>
<g>
</g>
<g>
</g>
<g>
</g>
<g>
</g>
<g>
</g>
<g>
</g>
<g>
</g>
<g>
</g>
<g>
</g>
<g>
</g>
<g>
</g>
<g>
</g>
<g>
</g>
<g>
</g>
<g>
</g>
</svg>
