<?xml version="1.0" encoding="iso-8859-1"?>
<!-- Generator: Adobe Illustrator 19.0.0, SVG Export Plug-In . SVG Version: 6.00 Build 0)  -->
<svg version="1.1" id="Layer_1" xmlns="http://www.w3.org/2000/svg" xmlns:xlink="http://www.w3.org/1999/xlink" x="0px" y="0px"
	 viewBox="0 0 512 512" style="enable-background:new 0 0 512 512;" xml:space="preserve">
<g>
	<g>
		<g>
			<path d="M230.11,190.037c0.495,0,1.007-0.043,1.519-0.137c7.979-1.442,16.179-2.167,24.371-2.167c4.71,0,8.533-3.823,8.533-8.533
				s-3.823-8.533-8.533-8.533c-9.207,0-18.423,0.819-27.392,2.432c-4.642,0.836-7.723,5.274-6.895,9.916
				C222.464,187.136,226.057,190.037,230.11,190.037z"/>
			<path d="M128.137,372.267c-5.751-15.326-8.67-31.471-8.67-48c0-10.718,1.237-21.376,3.695-31.701
				c1.092-4.582-1.741-9.19-6.332-10.274c-4.591-1.084-9.19,1.741-10.274,6.332c-2.756,11.614-4.156,23.603-4.156,35.644
				c0,18.586,3.285,36.753,9.762,53.999c1.28,3.422,4.531,5.538,7.987,5.538c0.998,0,2.014-0.179,3.004-0.555
				C127.565,381.594,129.792,376.678,128.137,372.267z"/>
			<path d="M123.426,264.67c1.263,0.657,2.611,0.973,3.951,0.973c3.072,0,6.042-1.664,7.569-4.582
				c14.071-26.906,37.026-48.623,64.649-61.167c4.292-1.946,6.187-7.006,4.241-11.298c-1.946-4.292-6.997-6.187-11.298-4.241
				c-31.07,14.106-56.892,38.545-72.721,68.804C117.641,257.331,119.253,262.485,123.426,264.67z"/>
			<path d="M119.526,154.598c0.546,4.676,4.787,8.038,9.472,7.475c4.676-0.546,8.03-4.787,7.475-9.472L120.525,17.067h33.946
				l12.109,111.846c0.478,4.378,4.173,7.62,8.474,7.62c0.307,0,0.623-0.017,0.93-0.051c4.685-0.503,8.073-4.719,7.569-9.395
				l-11.913-110.02h168.713L328.32,127.07c-0.512,4.685,2.867,8.9,7.552,9.412c0.316,0.034,0.631,0.051,0.939,0.051
				c4.301,0,7.996-3.234,8.474-7.603l12.228-111.863h33.954l-15.94,135.535c-0.555,4.685,2.79,8.926,7.475,9.472
				c0.341,0.043,0.674,0.06,1.007,0.06c4.267,0,7.953-3.2,8.465-7.535L409.54,9.532c0.282-2.423-0.478-4.847-2.099-6.673
				C405.828,1.041,403.507,0,401.067,0H110.933c-2.441,0-4.762,1.041-6.374,2.859c-1.621,1.826-2.381,4.25-2.099,6.673
				L119.526,154.598z"/>
			<path d="M388.727,292.113c0.947,3.908,4.437,6.528,8.286,6.528c0.666,0,1.34-0.077,2.014-0.239
				c4.582-1.109,7.398-5.717,6.298-10.3c-3.046-12.578-7.68-24.747-13.79-36.173c-2.219-4.156-7.407-5.717-11.554-3.499
				c-4.156,2.227-5.717,7.398-3.499,11.554C381.909,270.131,386.031,280.934,388.727,292.113z"/>
			<path d="M288.469,191.616c28.066,6.844,52.838,22.17,71.646,44.314c1.681,1.997,4.087,3.012,6.502,3.012
				c1.954,0,3.917-0.666,5.521-2.022c3.593-3.055,4.036-8.44,0.981-12.032c-21.146-24.909-49.024-42.146-80.606-49.852
				c-4.574-1.101-9.19,1.69-10.317,6.272C281.079,185.882,283.896,190.498,288.469,191.616z"/>
			<path d="M352.913,420.429c-6.187,6.229-12.988,11.878-20.207,16.794c-3.891,2.645-4.907,7.953-2.253,11.853
				c1.656,2.432,4.335,3.729,7.066,3.729c1.647,0,3.319-0.478,4.787-1.476c8.115-5.521,15.761-11.87,22.716-18.876
				c3.319-3.337,3.302-8.747-0.043-12.066C361.643,417.067,356.241,417.084,352.913,420.429z"/>
			<path d="M401.067,315.733c-4.71,0-8.533,3.823-8.533,8.533c0,25.796-7.228,50.918-20.907,72.636
				c-2.509,3.985-1.314,9.25,2.68,11.767c1.408,0.888,2.978,1.306,4.531,1.306c2.833,0,5.615-1.408,7.236-3.985
				c15.386-24.439,23.526-52.702,23.526-81.724C409.6,319.556,405.777,315.733,401.067,315.733z"/>
			<path d="M256,136.533c-103.518,0-187.733,84.215-187.733,187.733S152.482,512,256,512s187.733-84.215,187.733-187.733
				S359.518,136.533,256,136.533z M256,494.933c-94.106,0-170.667-76.561-170.667-170.667S161.894,153.6,256,153.6
				s170.667,76.561,170.667,170.667S350.106,494.933,256,494.933z"/>
			<path d="M306.432,341.862l44.86-36.343c2.816-2.278,3.883-6.076,2.679-9.481c-1.212-3.405-4.429-5.683-8.047-5.683h-58.692
				l-23.39-54.775c-1.34-3.14-4.429-5.18-7.842-5.18s-6.502,2.039-7.842,5.18l-23.39,54.775h-58.692
				c-3.695,0-6.972,2.381-8.115,5.897c-1.143,3.516,0.111,7.373,3.098,9.54l47.334,34.381l-20.19,58.095
				c-1.135,3.277-0.179,6.912,2.423,9.207c1.596,1.399,3.61,2.125,5.641,2.125c1.297,0,2.594-0.29,3.806-0.896l57.079-28.425
				l54.656,28.365c3.046,1.579,6.758,1.178,9.395-1.024c2.637-2.202,3.695-5.777,2.688-9.062L306.432,341.862z M261.163,363.136
				c-1.229-0.64-2.577-0.964-3.934-0.964c-1.297,0-2.603,0.299-3.797,0.896l-42.24,21.035l15.403-44.314
				c1.237-3.55,0-7.501-3.046-9.702l-31.206-22.665H230.4c3.413,0,6.502-2.039,7.842-5.188L256,260.659l17.758,41.574
				c1.34,3.149,4.429,5.188,7.842,5.188h40.235l-30.626,24.806c-2.714,2.193-3.814,5.811-2.79,9.139l13.167,42.743L261.163,363.136z
				"/>
			<path d="M167.356,428.117c-9.139-7.808-17.212-16.776-23.996-26.667c-2.662-3.874-7.97-4.873-11.861-2.202
				c-3.891,2.671-4.881,7.979-2.21,11.861c7.629,11.119,16.708,21.205,26.991,29.978c1.604,1.382,3.567,2.048,5.53,2.048
				c2.415,0,4.804-1.016,6.494-2.987C171.366,436.565,170.94,431.172,167.356,428.117z"/>
			<path d="M304.265,452.028c-15.403,5.82-31.642,8.772-48.265,8.772c-20.855,0-40.858-4.574-59.452-13.594
				c-4.233-2.039-9.344-0.282-11.401,3.959c-2.057,4.241-0.282,9.344,3.951,11.401c20.941,10.155,43.443,15.3,66.901,15.3
				c18.688,0,36.958-3.319,54.298-9.873c4.412-1.664,6.639-6.596,4.966-10.999C313.6,452.582,308.668,450.355,304.265,452.028z"/>
		</g>
	</g>
</g>
<g>
</g>
<g>
</g>
<g>
</g>
<g>
</g>
<g>
</g>
<g>
</g>
<g>
</g>
<g>
</g>
<g>
</g>
<g>
</g>
<g>
</g>
<g>
</g>
<g>
</g>
<g>
</g>
<g>
</g>
</svg>
