<?xml version="1.0" encoding="iso-8859-1"?>
<!-- Generator: Adobe Illustrator 19.0.0, SVG Export Plug-In . SVG Version: 6.00 Build 0)  -->
<svg version="1.1" id="Layer_1" xmlns="http://www.w3.org/2000/svg" xmlns:xlink="http://www.w3.org/1999/xlink" x="0px" y="0px"
	 viewBox="0 0 512 512" style="enable-background:new 0 0 512 512;" xml:space="preserve">
<g>
	<path style="fill:#F0353D;" d="M503.983,247.449c0,35.42-28.714,64.134-64.134,64.134s-64.134-28.714-64.134-64.134
		s28.714-64.134,64.134-64.134S503.983,212.029,503.983,247.449z M439.85,217.52c-16.529,0-29.929,13.4-29.929,29.929
		s13.4,29.929,29.929,29.929s29.929-13.4,29.929-29.929S456.379,217.52,439.85,217.52z"/>
	<path style="fill:#F0353D;" d="M72.15,183.316c35.42,0,64.134,28.714,64.134,64.134s-28.714,64.134-64.134,64.134
		S8.017,282.869,8.017,247.449S36.73,183.316,72.15,183.316z M42.221,247.449c0,16.529,13.4,29.929,29.929,29.929
		s29.929-13.4,29.929-29.929S88.68,217.52,72.15,217.52S42.221,230.92,42.221,247.449z"/>
</g>
<path style="fill:#FD6A33;" d="M277.378,441.252v-99.74h-42.756v99.74c-40.196,5.266-75.785,25.164-101.24,54.181h245.235
	C353.162,466.415,317.574,446.517,277.378,441.252z"/>
<path style="fill:#FF8C29;" d="M418.472,106.355H93.528c0,0,0,87.183,0,89.787c0,90.056,72.415,162.472,162.472,162.472
	s162.472-72.415,162.472-162.472C418.472,193.539,418.472,106.355,418.472,106.355z"/>
<rect x="67.875" y="106.355" style="fill:#FFD1A9;" width="376.251" height="47.031"/>
<polygon style="fill:#FFFFFF;" points="324.409,234.623 273.102,234.623 256,187.591 238.898,234.623 187.591,234.623 
	230.347,268.59 217.52,315.621 256,285.692 294.48,315.621 281.653,268.59 "/>
<path style="fill:#F0353D;" d="M234.622,341.512v99.74c-40.196,5.266-75.785,25.164-101.24,54.181H256V341.512H234.622z"/>
<path style="fill:#FD6A33;" d="M93.528,106.355c0,0,0,87.183,0,89.787c0,90.056,72.415,162.472,162.472,162.472V106.355H93.528z"/>
<rect x="67.875" y="106.355" style="fill:#FF8C29;" width="188.125" height="47.031"/>
<polygon style="fill:#FFD1A9;" points="238.898,234.623 187.591,234.623 230.347,268.59 217.52,315.621 256,285.692 256,187.591 "/>
<g>
	<path style="fill:#FFFFFF;" d="M324.417,315.399c-2.694,0-5.323-1.357-6.837-3.82c-2.318-3.772-1.139-8.709,2.633-11.027
		c8.103-4.98,15.656-10.951,22.451-17.746c3.294-3.293,6.425-6.799,9.305-10.418c2.756-3.465,7.801-4.038,11.264-1.283
		c3.465,2.757,4.039,7.8,1.283,11.264c-3.256,4.093-6.793,8.054-10.515,11.775c-7.68,7.68-16.224,14.431-25.394,20.067
		C327.297,315.015,325.849,315.399,324.417,315.399z"/>
	<path style="fill:#FFFFFF;" d="M376.059,255.468c-1.044,0-2.107-0.205-3.13-0.639c-4.076-1.731-5.977-6.436-4.248-10.513
		c6.44-15.171,9.706-31.38,9.706-48.174c0-4.427,3.588-8.017,8.017-8.017c4.428,0,8.017,3.589,8.017,8.017
		c0,18.959-3.694,37.276-10.98,54.44C382.147,253.635,379.179,255.468,376.059,255.468z"/>
</g>
<g>
	<path style="fill:#0295AA;" d="M277.378,29.93h-13.361V16.568c0-4.427-3.588-8.017-8.017-8.017c-4.428,0-8.017,3.589-8.017,8.017
		V29.93h-13.361c-4.428,0-8.017,3.589-8.017,8.017s3.588,8.017,8.017,8.017h13.361v13.361c0,4.427,3.588,8.017,8.017,8.017
		c4.428,0,8.017-3.589,8.017-8.017V45.963h13.361c4.428,0,8.017-3.589,8.017-8.017S281.806,29.93,277.378,29.93z"/>
	<path style="fill:#0295AA;" d="M397.094,29.93h-13.361V16.568c0-4.427-3.588-8.017-8.017-8.017c-4.428,0-8.017,3.589-8.017,8.017
		V29.93h-13.361c-4.428,0-8.017,3.589-8.017,8.017s3.588,8.017,8.017,8.017h13.361v13.361c0,4.427,3.588,8.017,8.017,8.017
		c4.428,0,8.017-3.589,8.017-8.017V45.963h13.361c4.428,0,8.017-3.589,8.017-8.017S401.522,29.93,397.094,29.93z"/>
	<path style="fill:#0295AA;" d="M166.213,29.93h-13.361V16.568c0-4.427-3.588-8.017-8.017-8.017c-4.428,0-8.017,3.589-8.017,8.017
		V29.93h-13.361c-4.428,0-8.017,3.589-8.017,8.017s3.588,8.017,8.017,8.017h13.361v13.361c0,4.427,3.588,8.017,8.017,8.017
		c4.428,0,8.017-3.589,8.017-8.017V45.963h13.361c4.428,0,8.017-3.589,8.017-8.017S170.641,29.93,166.213,29.93z"/>
</g>
<path d="M439.85,175.299c-4.506,0-8.97,0.432-13.361,1.258v-15.154h17.637c4.428,0,8.017-3.589,8.017-8.017v-47.031
	c0-4.427-3.588-8.017-8.017-8.017h-25.653H93.528H67.875c-4.428,0-8.017,3.589-8.017,8.017v47.031c0,4.427,3.588,8.017,8.017,8.017
	h17.637v15.154c-4.391-0.826-8.855-1.258-13.361-1.258c-39.784,0-72.15,32.366-72.15,72.15s32.366,72.15,72.15,72.15
	c18.295,0,35.606-6.87,48.848-19.087c26.11,33.787,63.865,56.311,105.607,63.568v70.283c-38.349,6.652-73.374,26.285-99.25,55.782
	c-2.076,2.365-2.575,5.727-1.276,8.594c1.3,2.867,4.156,4.708,7.303,4.708h245.236c3.147,0,6.003-1.842,7.303-4.708
	c1.299-2.867,0.8-6.228-1.276-8.594c-25.876-29.497-60.9-49.131-99.25-55.782v-70.283c41.742-7.257,79.497-29.782,105.607-63.568
	c13.243,12.217,30.553,19.087,48.848,19.087c39.784,0,72.15-32.366,72.15-72.15S479.634,175.299,439.85,175.299z M422.158,234.535
	c4.129-5.657,10.649-8.998,17.691-8.998c12.083,0,21.912,9.83,21.912,21.912s-9.83,21.912-21.912,21.912
	c-11.476,0-20.808-8.678-21.793-19.965C419.629,244.572,421.005,239.59,422.158,234.535z M75.891,114.372h17.637h324.944h17.637
	v30.998h-17.637H93.528H75.891V114.372z M89.841,234.535c1.154,5.055,2.529,10.036,4.101,14.862
	c-0.983,11.286-10.316,19.965-21.792,19.965c-12.083,0-21.912-9.83-21.912-21.912s9.83-21.912,21.912-21.912
	C79.192,225.537,85.712,228.879,89.841,234.535z M72.15,303.566c-30.942,0-56.117-25.173-56.117-56.117s25.175-56.117,56.117-56.117
	c4.527,0,9,0.552,13.361,1.62v3.19c0,5.369,0.266,10.737,0.764,16.079c-4.419-1.769-9.197-2.718-14.125-2.718
	c-20.924,0-37.946,17.022-37.946,37.946c0,20.924,17.022,37.946,37.946,37.946c12.388,0,23.346-5.839,30.261-14.969
	c2.78,5.762,5.875,11.376,9.298,16.804C101.229,297.669,87.108,303.566,72.15,303.566z M269.361,366.631v74.619
	c0,4.025,2.984,7.426,6.975,7.949c31.011,4.063,59.925,17.453,83.094,38.216H152.57c23.169-20.763,52.084-34.153,83.094-38.216
	c3.99-0.523,6.975-3.924,6.975-7.949v-74.619H269.361z M256,350.598c-51.136,0-98.826-25.084-127.571-67.1
	c-0.002-0.003-0.005-0.006-0.007-0.011c-7.966-11.646-14.281-24.299-18.771-37.61c-1.774-5.262-3.293-10.762-4.514-16.347
	c0-0.002-0.001-0.004-0.002-0.006c-2.381-10.919-3.589-22.151-3.589-33.382v-9.163v-25.576h308.91v25.576v9.163
	c0,11.231-1.208,22.463-3.59,33.382c0,0.002-0.001,0.004-0.002,0.006c-1.221,5.585-2.74,11.084-4.514,16.347
	c-4.489,13.311-10.804,25.964-18.771,37.61c-0.003,0.003-0.005,0.006-0.007,0.011C354.826,325.514,307.136,350.598,256,350.598z
	 M439.85,303.566c-14.958,0-29.078-5.897-39.559-16.336c3.424-5.428,6.518-11.042,9.298-16.804
	c6.915,9.129,17.872,14.969,30.26,14.969c20.924,0,37.946-17.022,37.946-37.946c0-20.924-17.022-37.946-37.946-37.946
	c-4.929,0-9.707,0.949-14.125,2.718c0.498-5.342,0.764-10.71,0.764-16.079v-3.19c4.362-1.07,8.834-1.62,13.361-1.62
	c30.942,0,56.117,25.174,56.117,56.117S470.792,303.566,439.85,303.566z"/>
<path d="M324.409,226.606h-45.692l-15.183-41.754c-1.152-3.168-4.163-5.277-7.535-5.277s-6.382,2.109-7.535,5.277l-15.183,41.754
	h-45.692c-3.409,0-6.445,2.157-7.569,5.375c-1.123,3.219-0.088,6.797,2.582,8.918l38.617,30.68l-11.435,41.933
	c-0.909,3.329,0.416,6.866,3.287,8.779c2.871,1.915,6.646,1.778,9.369-0.342l33.558-26.1l33.559,26.1
	c1.443,1.122,3.181,1.689,4.922,1.689c1.546,0,3.095-0.446,4.446-1.347c2.872-1.914,4.195-5.45,3.287-8.779l-11.435-41.933
	l38.617-30.68c2.67-2.121,3.706-5.699,2.582-8.918C330.855,228.763,327.819,226.606,324.409,226.606z M276.667,262.313
	c-2.511,1.995-3.591,5.293-2.747,8.387l6.498,23.829l-19.496-15.163c-1.448-1.126-3.185-1.689-4.922-1.689
	c-1.737,0-3.474,0.563-4.922,1.689l-19.496,15.163l6.498-23.829c0.844-3.093-0.237-6.392-2.747-8.387l-24.764-19.674h28.329
	c3.37,0,6.382-2.109,7.535-5.277L256,211.049l9.568,26.313c1.152,3.168,4.163,5.277,7.535,5.277h28.329L276.667,262.313z"/>
<g>
</g>
<g>
</g>
<g>
</g>
<g>
</g>
<g>
</g>
<g>
</g>
<g>
</g>
<g>
</g>
<g>
</g>
<g>
</g>
<g>
</g>
<g>
</g>
<g>
</g>
<g>
</g>
<g>
</g>
</svg>
