<!DOCTYPE svg PUBLIC "-//W3C//DTD SVG 1.1//EN" "http://www.w3.org/Graphics/SVG/1.1/DTD/svg11.dtd">
<!-- Uploaded to: SVG Repo, www.svgrepo.com, Transformed by: SVG Repo Mixer Tools -->
<svg fill="#ffffff" width="64px" height="64px" viewBox="0 0 24 24" xmlns="http://www.w3.org/2000/svg">
<g id="SVGRepo_bgCarrier" stroke-width="0"/>
<g id="SVGRepo_tracerCarrier" stroke-linecap="round" stroke-linejoin="round"/>
<g id="SVGRepo_iconCarrier">
<path d="M3,22H21a1,1,0,0,0,1-1V6a1,1,0,0,0-1-1H17V3a1,1,0,0,0-2,0V5H9V3A1,1,0,0,0,7,3V5H3A1,1,0,0,0,2,6V21A1,1,0,0,0,3,22ZM4,7H20v3H4Zm0,5H20v8H4Z"/>
</g>
</svg>