<!DOCTYPE svg PUBLIC "-//W3C//DTD SVG 1.1//EN" "http://www.w3.org/Graphics/SVG/1.1/DTD/svg11.dtd">
<!-- Uploaded to: SVG Repo, www.svgrepo.com, Transformed by: SVG Repo Mixer Tools -->
<svg height="64px" width="64px" version="1.1" id="Layer_1" xmlns="http://www.w3.org/2000/svg" xmlns:xlink="http://www.w3.org/1999/xlink" viewBox="0 0 512.00 512.00" xml:space="preserve" fill="#346434" stroke="#346434">
<g id="SVGRepo_bgCarrier" stroke-width="0"/>
<g id="SVGRepo_tracerCarrier" stroke-linecap="round" stroke-linejoin="round" stroke="#CCCCCC" stroke-width="1.024008"/>
<g id="SVGRepo_iconCarrier"> <g> <g> <polygon style="fill:#b7bdb8;" points="459.036,180.196 459.036,258.727 256.002,370.669 52.967,258.727 52.967,180.196 0.002,229.507 0.002,511.999 512.002,511.999 512.002,229.507 "/> <path style="fill:#b7bdb8;" d="M350.821,79.446L272.432,6.46c-9.26-8.607-23.605-8.607-32.865,0l-78.38,72.986H350.821z"/> </g> <path style="fill:#346434;" d="M0.803,229.955l507.683,279.932c-0.282,1.13-0.256,0.98-0.538,2.11H1.139 c-0.627,0-1.139-0.503-1.139-1.139V230.432C0,230.025,0.441,229.761,0.803,229.955"/> <path style="fill:#346434;" d="M511.2,229.955L256.004,370.667l252.487,139.22c-0.291,1.13-0.256,0.989-0.547,2.11h2.922 c0.627,0,1.139-0.503,1.139-1.139V230.432C512.004,230.017,511.562,229.761,511.2,229.955"/> <polygon style="fill:#e5e4e1;" points="256.002,370.67 459.036,258.719 459.036,79.448 52.967,79.448 52.967,258.719 "/> <polygon style="fill:#E57E25;" points="317.795,336.602 370.76,307.391 370.76,158.894 317.795,158.894 "/> <polygon style="fill:#F0C419;" points="229.519,356.067 256.002,370.667 282.485,356.067 282.485,123.583 229.519,123.583 "/> <polygon style="fill:#4482C3;" points="141.243,307.395 194.209,336.605 194.209,185.38 141.243,185.38 "/> </g> </g>
</svg>