<?xml version="1.0" encoding="iso-8859-1"?>
<!-- Generator: Adobe Illustrator 17.1.0, SVG Export Plug-In . SVG Version: 6.00 Build 0)  -->
<!DOCTYPE svg PUBLIC "-//W3C//DTD SVG 1.1//EN" "http://www.w3.org/Graphics/SVG/1.1/DTD/svg11.dtd">
<svg version="1.1" id="Capa_1" xmlns="http://www.w3.org/2000/svg" xmlns:xlink="http://www.w3.org/1999/xlink" x="0px" y="0px"
	 viewBox="0 0 198.042 198.042" style="enable-background:new 0 0 198.042 198.042;" xml:space="preserve">
<path d="M180.729,18.402c-0.318-2.109-1.94-3.784-4.038-4.171L99.927,0.083c-0.6-0.111-1.213-0.111-1.813,0L21.351,14.231
	c-2.098,0.387-3.72,2.062-4.038,4.171c-0.327,2.169-7.841,53.637,7.259,98.157c15.281,45.057,69.502,79.289,71.803,80.725
	c0.81,0.505,1.729,0.758,2.646,0.758s1.837-0.253,2.646-0.758c2.301-1.436,56.521-35.668,71.803-80.725
	C188.57,72.039,181.056,20.571,180.729,18.402z M159.036,110.882c-12.812,37.037-60.015,65.906-60.015,65.906V97.435H35.216
	c-7.508-33.414-2.279-67.413-2.279-67.413l66.084-11.94v79.353h63.804C161.809,101.956,160.563,106.467,159.036,110.882z"/>
<g>
</g>
<g>
</g>
<g>
</g>
<g>
</g>
<g>
</g>
<g>
</g>
<g>
</g>
<g>
</g>
<g>
</g>
<g>
</g>
<g>
</g>
<g>
</g>
<g>
</g>
<g>
</g>
<g>
</g>
</svg>
